<svg class="bob" font-family="arial" font-size="14" height="112" width="592" xmlns="http://www.w3.org/2000/svg">
<defs>
<marker id="triangle" markerHeight="10" markerUnits="strokeWidth" markerWidth="10" orient="auto" refX="15" refY="10" viewBox="0 0 50 20">
<path d="M 0 0 L 30 10 L 0 20 z"/>
</marker>
</defs>
<style>

    line, path {
      stroke: black;
      stroke-width: 2;
      stroke-opacity: 1;
      fill-opacity: 1;
      stroke-linecap: round;
      stroke-linejoin: miter;
    }
    circle {
      stroke: black;
      stroke-width: 2;
      stroke-opacity: 1;
      fill-opacity: 1;
      stroke-linecap: round;
      stroke-linejoin: miter;
    }
    circle.solid {
      fill:black;
    }
    circle.open {
      fill:transparent;
    }
    tspan.head{
        fill: none;
        stroke: none;
    }
    
</style>
<text x="33" y="28">
E
</text>
<line x1="52" x2="56" y1="24" y2="24"/>
<line x1="52" x2="52" y1="24" y2="32"/>
<line x1="56" x2="64" y1="24" y2="24"/>
<line x1="56" x2="64" y1="24" y2="24"/>
<line x1="64" x2="72" y1="24" y2="24"/>
<line x1="64" x2="72" y1="24" y2="24"/>
<line x1="72" x2="80" y1="24" y2="24"/>
<line x1="72" x2="80" y1="24" y2="24"/>
<line x1="80" x2="88" y1="24" y2="24"/>
<line x1="80" x2="88" y1="24" y2="24"/>
<line x1="88" x2="96" y1="24" y2="24"/>
<line x1="88" x2="96" y1="24" y2="24"/>
<line x1="96" x2="104" y1="24" y2="24"/>
<line x1="96" x2="104" y1="24" y2="24"/>
<line x1="104" x2="112" y1="24" y2="24"/>
<line x1="104" x2="112" y1="24" y2="24"/>
<line x1="112" x2="120" y1="24" y2="24"/>
<line x1="112" x2="120" y1="24" y2="24"/>
<line x1="120" x2="128" y1="24" y2="24"/>
<line x1="120" x2="128" y1="24" y2="24"/>
<line x1="128" x2="136" y1="24" y2="24"/>
<line x1="128" x2="136" y1="24" y2="24"/>
<line x1="136" x2="144" y1="24" y2="24"/>
<line x1="136" x2="144" y1="24" y2="24"/>
<line x1="144" x2="152" y1="24" y2="24"/>
<line x1="144" x2="152" y1="24" y2="24"/>
<line x1="152" x2="160" y1="24" y2="24"/>
<line x1="152" x2="160" y1="24" y2="24"/>
<line x1="160" x2="168" y1="24" y2="24"/>
<line x1="160" x2="168" y1="24" y2="24"/>
<line x1="168" x2="176" y1="24" y2="24"/>
<line x1="168" x2="176" y1="24" y2="24"/>
<line x1="176" x2="184" y1="24" y2="24"/>
<line x1="176" x2="184" y1="24" y2="24"/>
<line x1="184" x2="192" y1="24" y2="24"/>
<line x1="184" x2="192" y1="24" y2="24"/>
<line x1="192" x2="200" y1="24" y2="24"/>
<line x1="192" x2="200" y1="24" y2="24"/>
<line x1="200" x2="208" y1="24" y2="24"/>
<line x1="200" x2="208" y1="24" y2="24"/>
<line x1="208" x2="216" y1="24" y2="24"/>
<line x1="208" x2="216" y1="24" y2="24"/>
<line x1="216" x2="224" y1="24" y2="24"/>
<line x1="216" x2="224" y1="24" y2="24"/>
<line x1="224" x2="232" y1="24" y2="24"/>
<line x1="224" x2="232" y1="24" y2="24"/>
<line x1="232" x2="240" y1="24" y2="24"/>
<line x1="232" x2="240" y1="24" y2="24"/>
<line x1="240" x2="248" y1="24" y2="24"/>
<line x1="240" x2="248" y1="24" y2="24"/>
<line x1="248" x2="256" y1="24" y2="24"/>
<line x1="248" x2="256" y1="24" y2="24"/>
<line x1="260" x2="260" y1="24" y2="32"/>
<circle class="solid" cx="260" cy="24" r="4"/>
<line x1="260" x2="256" y1="24" y2="24"/>
<circle class="solid" cx="260" cy="24" r="4"/>
<line x1="260" x2="264" y1="24" y2="24"/>
<circle class="solid" cx="260" cy="24" r="4"/>
<line x1="264" x2="272" y1="24" y2="24"/>
<line x1="264" x2="272" y1="24" y2="24"/>
<line x1="272" x2="280" y1="24" y2="24"/>
<line x1="272" x2="280" y1="24" y2="24"/>
<line x1="284" x2="280" y1="24" y2="24"/>
<line x1="284" x2="284" y1="24" y2="32"/>
<text x="329" y="28">
E
</text>
<line x1="348" x2="348" y1="16" y2="32"/>
<line x1="348" x2="348" y1="16" y2="32"/>
<line x1="556" x2="556" y1="28" y2="32"/>
<circle class="open" cx="556" cy="24" r="4"/>
<text x="33" y="44">
D
</text>
<line x1="52" x2="52" y1="32" y2="48"/>
<line x1="52" x2="52" y1="32" y2="48"/>
<line x1="64" x2="52" y1="40" y2="40"/>
<line x1="64" x2="72" y1="40" y2="40"/>
<line x1="64" x2="72" y1="40" y2="40"/>
<line x1="72" x2="80" y1="40" y2="40"/>
<line x1="72" x2="80" y1="40" y2="40"/>
<line x1="80" x2="88" y1="40" y2="40"/>
<line x1="80" x2="88" y1="40" y2="40"/>
<line x1="88" x2="96" y1="40" y2="40"/>
<line x1="88" x2="96" y1="40" y2="40"/>
<line x1="96" x2="104" y1="40" y2="40"/>
<line x1="96" x2="104" y1="40" y2="40"/>
<line x1="104" x2="112" y1="40" y2="40"/>
<line x1="104" x2="112" y1="40" y2="40"/>
<line x1="112" x2="120" y1="40" y2="40"/>
<line x1="112" x2="120" y1="40" y2="40"/>
<line x1="120" x2="128" y1="40" y2="40"/>
<line x1="120" x2="128" y1="40" y2="40"/>
<line x1="128" x2="136" y1="40" y2="40"/>
<line x1="128" x2="136" y1="40" y2="40"/>
<line x1="136" x2="144" y1="40" y2="40"/>
<line x1="136" x2="144" y1="40" y2="40"/>
<line x1="144" x2="152" y1="40" y2="40"/>
<line x1="144" x2="152" y1="40" y2="40"/>
<line x1="152" x2="160" y1="40" y2="40"/>
<line x1="152" x2="160" y1="40" y2="40"/>
<line x1="160" x2="168" y1="40" y2="40"/>
<line x1="160" x2="168" y1="40" y2="40"/>
<line x1="168" x2="176" y1="40" y2="40"/>
<line x1="168" x2="176" y1="40" y2="40"/>
<line x1="176" x2="184" y1="40" y2="40"/>
<line x1="176" x2="184" y1="40" y2="40"/>
<line x1="184" x2="192" y1="40" y2="40"/>
<line x1="184" x2="192" y1="40" y2="40"/>
<line x1="192" x2="200" y1="40" y2="40"/>
<line x1="192" x2="200" y1="40" y2="40"/>
<line x1="200" x2="208" y1="40" y2="40"/>
<line x1="200" x2="208" y1="40" y2="40"/>
<line x1="212" x2="212" y1="40" y2="48"/>
<circle class="solid" cx="212" cy="40" r="4"/>
<line x1="212" x2="208" y1="40" y2="40"/>
<circle class="solid" cx="212" cy="40" r="4"/>
<line x1="212" x2="216" y1="40" y2="40"/>
<circle class="solid" cx="212" cy="40" r="4"/>
<line x1="216" x2="224" y1="40" y2="40"/>
<line x1="216" x2="224" y1="40" y2="40"/>
<line x1="224" x2="232" y1="40" y2="40"/>
<line x1="224" x2="232" y1="40" y2="40"/>
<line x1="236" x2="236" y1="40" y2="48"/>
<circle class="solid" cx="236" cy="40" r="4"/>
<line x1="236" x2="232" y1="40" y2="40"/>
<circle class="solid" cx="236" cy="40" r="4"/>
<line x1="236" x2="240" y1="40" y2="40"/>
<circle class="solid" cx="236" cy="40" r="4"/>
<line x1="240" x2="248" y1="40" y2="40"/>
<line x1="240" x2="248" y1="40" y2="40"/>
<line x1="248" x2="260" y1="40" y2="40"/>
<line x1="260" x2="260" y1="32" y2="48"/>
<line x1="260" x2="260" y1="32" y2="48"/>
<line x1="272" x2="260" y1="40" y2="40"/>
<line x1="272" x2="280" y1="40" y2="40"/>
<line x1="272" x2="280" y1="40" y2="40"/>
<line x1="284" x2="284" y1="40" y2="48"/>
<circle class="solid" cx="284" cy="40" r="4"/>
<line x1="284" x2="280" y1="40" y2="40"/>
<circle class="solid" cx="284" cy="40" r="4"/>
<text x="329" y="44">
D
</text>
<line x1="348" x2="348" y1="32" y2="48"/>
<line x1="348" x2="348" y1="32" y2="48"/>
<line x1="508" x2="508" y1="44" y2="48"/>
<circle class="open" cx="508" cy="40" r="4"/>
<line x1="532" x2="532" y1="44" y2="48"/>
<circle class="open" cx="532" cy="40" r="4"/>
<line x1="556" x2="556" y1="32" y2="48"/>
<line x1="556" x2="556" y1="32" y2="48"/>
<line x1="580" x2="580" y1="44" y2="48"/>
<circle class="open" cx="580" cy="40" r="4"/>
<text x="33" y="60">
C
</text>
<line x1="52" x2="52" y1="48" y2="64"/>
<line x1="52" x2="52" y1="48" y2="64"/>
<line x1="64" x2="52" y1="56" y2="56"/>
<line x1="64" x2="72" y1="56" y2="56"/>
<line x1="64" x2="72" y1="56" y2="56"/>
<line x1="72" x2="80" y1="56" y2="56"/>
<line x1="72" x2="80" y1="56" y2="56"/>
<line x1="80" x2="88" y1="56" y2="56"/>
<line x1="80" x2="88" y1="56" y2="56"/>
<line x1="88" x2="96" y1="56" y2="56"/>
<line x1="88" x2="96" y1="56" y2="56"/>
<line x1="96" x2="104" y1="56" y2="56"/>
<line x1="96" x2="104" y1="56" y2="56"/>
<line x1="104" x2="112" y1="56" y2="56"/>
<line x1="104" x2="112" y1="56" y2="56"/>
<line x1="112" x2="120" y1="56" y2="56"/>
<line x1="112" x2="120" y1="56" y2="56"/>
<line x1="120" x2="128" y1="56" y2="56"/>
<line x1="120" x2="128" y1="56" y2="56"/>
<line x1="128" x2="136" y1="56" y2="56"/>
<line x1="128" x2="136" y1="56" y2="56"/>
<line x1="136" x2="144" y1="56" y2="56"/>
<line x1="136" x2="144" y1="56" y2="56"/>
<line x1="144" x2="152" y1="56" y2="56"/>
<line x1="144" x2="152" y1="56" y2="56"/>
<line x1="152" x2="160" y1="56" y2="56"/>
<line x1="152" x2="160" y1="56" y2="56"/>
<line x1="164" x2="164" y1="56" y2="64"/>
<circle class="solid" cx="164" cy="56" r="4"/>
<line x1="164" x2="160" y1="56" y2="56"/>
<circle class="solid" cx="164" cy="56" r="4"/>
<line x1="164" x2="168" y1="56" y2="56"/>
<circle class="solid" cx="164" cy="56" r="4"/>
<line x1="168" x2="176" y1="56" y2="56"/>
<line x1="168" x2="176" y1="56" y2="56"/>
<line x1="176" x2="184" y1="56" y2="56"/>
<line x1="176" x2="184" y1="56" y2="56"/>
<line x1="188" x2="188" y1="56" y2="64"/>
<circle class="solid" cx="188" cy="56" r="4"/>
<line x1="188" x2="184" y1="56" y2="56"/>
<circle class="solid" cx="188" cy="56" r="4"/>
<line x1="212" x2="212" y1="48" y2="64"/>
<line x1="212" x2="212" y1="48" y2="64"/>
<line x1="236" x2="236" y1="48" y2="64"/>
<line x1="236" x2="236" y1="48" y2="64"/>
<line x1="260" x2="260" y1="48" y2="64"/>
<line x1="260" x2="260" y1="48" y2="64"/>
<line x1="284" x2="284" y1="48" y2="64"/>
<line x1="284" x2="284" y1="48" y2="64"/>
<text x="329" y="60">
C
</text>
<line x1="348" x2="348" y1="48" y2="64"/>
<line x1="348" x2="348" y1="48" y2="64"/>
<line x1="460" x2="460" y1="60" y2="64"/>
<circle class="open" cx="460" cy="56" r="4"/>
<line x1="484" x2="484" y1="60" y2="64"/>
<circle class="open" cx="484" cy="56" r="4"/>
<line x1="508" x2="508" y1="48" y2="64"/>
<line x1="508" x2="508" y1="48" y2="64"/>
<line x1="532" x2="532" y1="48" y2="64"/>
<line x1="532" x2="532" y1="48" y2="64"/>
<line x1="556" x2="556" y1="48" y2="64"/>
<line x1="556" x2="556" y1="48" y2="64"/>
<line x1="580" x2="580" y1="48" y2="64"/>
<line x1="580" x2="580" y1="48" y2="64"/>
<text x="33" y="76">
B
</text>
<line x1="52" x2="52" y1="64" y2="80"/>
<line x1="52" x2="52" y1="64" y2="80"/>
<line x1="64" x2="52" y1="72" y2="72"/>
<line x1="64" x2="72" y1="72" y2="72"/>
<line x1="64" x2="72" y1="72" y2="72"/>
<line x1="72" x2="80" y1="72" y2="72"/>
<line x1="72" x2="80" y1="72" y2="72"/>
<line x1="80" x2="88" y1="72" y2="72"/>
<line x1="80" x2="88" y1="72" y2="72"/>
<line x1="88" x2="96" y1="72" y2="72"/>
<line x1="88" x2="96" y1="72" y2="72"/>
<line x1="96" x2="104" y1="72" y2="72"/>
<line x1="96" x2="104" y1="72" y2="72"/>
<line x1="104" x2="112" y1="72" y2="72"/>
<line x1="104" x2="112" y1="72" y2="72"/>
<line x1="116" x2="112" y1="72" y2="72"/>
<circle class="solid" cx="116" cy="72" r="4"/>
<line x1="116" x2="120" y1="72" y2="72"/>
<circle class="solid" cx="116" cy="72" r="4"/>
<line x1="120" x2="128" y1="72" y2="72"/>
<line x1="120" x2="128" y1="72" y2="72"/>
<line x1="128" x2="136" y1="72" y2="72"/>
<line x1="128" x2="136" y1="72" y2="72"/>
<line x1="140" x2="136" y1="72" y2="72"/>
<circle class="solid" cx="140" cy="72" r="4"/>
<line x1="164" x2="164" y1="64" y2="80"/>
<line x1="164" x2="164" y1="64" y2="80"/>
<line x1="188" x2="188" y1="64" y2="80"/>
<line x1="188" x2="188" y1="64" y2="80"/>
<line x1="212" x2="212" y1="64" y2="80"/>
<line x1="212" x2="212" y1="64" y2="80"/>
<line x1="236" x2="236" y1="64" y2="80"/>
<line x1="236" x2="236" y1="64" y2="80"/>
<line x1="260" x2="260" y1="64" y2="80"/>
<line x1="260" x2="260" y1="64" y2="80"/>
<line x1="284" x2="284" y1="64" y2="80"/>
<line x1="284" x2="284" y1="64" y2="80"/>
<text x="329" y="76">
B
</text>
<line x1="348" x2="348" y1="64" y2="80"/>
<line x1="348" x2="348" y1="64" y2="80"/>
<line x1="412" x2="412" y1="76" y2="80"/>
<circle class="open" cx="412" cy="72" r="4"/>
<line x1="436" x2="436" y1="76" y2="80"/>
<circle class="open" cx="436" cy="72" r="4"/>
<line x1="460" x2="460" y1="64" y2="80"/>
<line x1="460" x2="460" y1="64" y2="80"/>
<line x1="484" x2="484" y1="64" y2="80"/>
<line x1="484" x2="484" y1="64" y2="80"/>
<line x1="508" x2="508" y1="64" y2="80"/>
<line x1="508" x2="508" y1="64" y2="80"/>
<line x1="532" x2="532" y1="64" y2="80"/>
<line x1="532" x2="532" y1="64" y2="80"/>
<line x1="556" x2="556" y1="64" y2="80"/>
<line x1="556" x2="556" y1="64" y2="80"/>
<line x1="580" x2="580" y1="64" y2="80"/>
<line x1="580" x2="580" y1="64" y2="80"/>
<text x="33" y="92">
A
</text>
<line x1="52" x2="52" y1="88" y2="80"/>
<line x1="52" x2="56" y1="88" y2="88"/>
<line x1="56" x2="64" y1="88" y2="88"/>
<line x1="56" x2="64" y1="88" y2="88"/>
<line x1="68" x2="64" y1="88" y2="88"/>
<circle class="solid" cx="68" cy="88" r="4"/>
<line x1="68" x2="72" y1="88" y2="88"/>
<circle class="solid" cx="68" cy="88" r="4"/>
<line x1="72" x2="80" y1="88" y2="88"/>
<line x1="72" x2="80" y1="88" y2="88"/>
<line x1="80" x2="88" y1="88" y2="88"/>
<line x1="80" x2="88" y1="88" y2="88"/>
<line x1="92" x2="88" y1="88" y2="88"/>
<circle class="solid" cx="92" cy="88" r="4"/>
<line x1="92" x2="96" y1="88" y2="88"/>
<circle class="solid" cx="92" cy="88" r="4"/>
<line x1="96" x2="104" y1="88" y2="88"/>
<line x1="96" x2="104" y1="88" y2="88"/>
<line x1="104" x2="112" y1="88" y2="88"/>
<line x1="104" x2="112" y1="88" y2="88"/>
<line x1="116" x2="116" y1="88" y2="80"/>
<line x1="116" x2="112" y1="88" y2="88"/>
<line x1="116" x2="120" y1="88" y2="88"/>
<line x1="120" x2="128" y1="88" y2="88"/>
<line x1="120" x2="128" y1="88" y2="88"/>
<line x1="128" x2="136" y1="88" y2="88"/>
<line x1="128" x2="136" y1="88" y2="88"/>
<line x1="140" x2="140" y1="88" y2="80"/>
<line x1="140" x2="136" y1="88" y2="88"/>
<line x1="140" x2="144" y1="88" y2="88"/>
<line x1="144" x2="152" y1="88" y2="88"/>
<line x1="144" x2="152" y1="88" y2="88"/>
<line x1="152" x2="160" y1="88" y2="88"/>
<line x1="152" x2="160" y1="88" y2="88"/>
<line x1="164" x2="164" y1="88" y2="80"/>
<line x1="164" x2="160" y1="88" y2="88"/>
<line x1="164" x2="168" y1="88" y2="88"/>
<line x1="168" x2="176" y1="88" y2="88"/>
<line x1="168" x2="176" y1="88" y2="88"/>
<line x1="176" x2="184" y1="88" y2="88"/>
<line x1="176" x2="184" y1="88" y2="88"/>
<line x1="188" x2="188" y1="88" y2="80"/>
<line x1="188" x2="184" y1="88" y2="88"/>
<line x1="188" x2="192" y1="88" y2="88"/>
<line x1="192" x2="200" y1="88" y2="88"/>
<line x1="192" x2="200" y1="88" y2="88"/>
<line x1="200" x2="208" y1="88" y2="88"/>
<line x1="200" x2="208" y1="88" y2="88"/>
<line x1="212" x2="212" y1="88" y2="80"/>
<line x1="212" x2="208" y1="88" y2="88"/>
<line x1="212" x2="216" y1="88" y2="88"/>
<line x1="216" x2="224" y1="88" y2="88"/>
<line x1="216" x2="224" y1="88" y2="88"/>
<line x1="224" x2="232" y1="88" y2="88"/>
<line x1="224" x2="232" y1="88" y2="88"/>
<line x1="236" x2="236" y1="88" y2="80"/>
<line x1="236" x2="232" y1="88" y2="88"/>
<line x1="236" x2="240" y1="88" y2="88"/>
<line x1="240" x2="248" y1="88" y2="88"/>
<line x1="240" x2="248" y1="88" y2="88"/>
<line x1="248" x2="256" y1="88" y2="88"/>
<line x1="248" x2="256" y1="88" y2="88"/>
<line x1="260" x2="260" y1="88" y2="80"/>
<line x1="260" x2="256" y1="88" y2="88"/>
<line x1="260" x2="264" y1="88" y2="88"/>
<line x1="264" x2="272" y1="88" y2="88"/>
<line x1="264" x2="272" y1="88" y2="88"/>
<line x1="272" x2="280" y1="88" y2="88"/>
<line x1="272" x2="280" y1="88" y2="88"/>
<line x1="284" x2="284" y1="88" y2="80"/>
<line x1="284" x2="280" y1="88" y2="88"/>
<text x="329" y="92">
A
</text>
<line x1="348" x2="348" y1="88" y2="80"/>
<line x1="348" x2="352" y1="88" y2="88"/>
<line x1="352" x2="360" y1="88" y2="88"/>
<line x1="352" x2="360" y1="88" y2="88"/>
<circle class="open" cx="364" cy="88" r="4"/>
<circle class="open" cx="364" cy="88" r="4"/>
<line x1="368" x2="376" y1="88" y2="88"/>
<line x1="368" x2="376" y1="88" y2="88"/>
<line x1="376" x2="384" y1="88" y2="88"/>
<line x1="376" x2="384" y1="88" y2="88"/>
<circle class="open" cx="388" cy="88" r="4"/>
<circle class="open" cx="388" cy="88" r="4"/>
<line x1="392" x2="400" y1="88" y2="88"/>
<line x1="392" x2="400" y1="88" y2="88"/>
<line x1="400" x2="412" y1="88" y2="88"/>
<line x1="412" x2="412" y1="80" y2="96"/>
<line x1="412" x2="412" y1="80" y2="96"/>
<line x1="424" x2="412" y1="88" y2="88"/>
<line x1="424" x2="436" y1="88" y2="88"/>
<line x1="436" x2="436" y1="80" y2="96"/>
<line x1="436" x2="436" y1="80" y2="96"/>
<line x1="448" x2="436" y1="88" y2="88"/>
<line x1="448" x2="460" y1="88" y2="88"/>
<line x1="460" x2="460" y1="80" y2="96"/>
<line x1="460" x2="460" y1="80" y2="96"/>
<line x1="472" x2="460" y1="88" y2="88"/>
<line x1="472" x2="484" y1="88" y2="88"/>
<line x1="484" x2="484" y1="80" y2="96"/>
<line x1="484" x2="484" y1="80" y2="96"/>
<line x1="496" x2="484" y1="88" y2="88"/>
<line x1="496" x2="508" y1="88" y2="88"/>
<line x1="508" x2="508" y1="80" y2="96"/>
<line x1="508" x2="508" y1="80" y2="96"/>
<line x1="520" x2="508" y1="88" y2="88"/>
<line x1="520" x2="532" y1="88" y2="88"/>
<line x1="532" x2="532" y1="80" y2="96"/>
<line x1="532" x2="532" y1="80" y2="96"/>
<line x1="544" x2="532" y1="88" y2="88"/>
<line x1="544" x2="556" y1="88" y2="88"/>
<line x1="556" x2="556" y1="80" y2="96"/>
<line x1="556" x2="556" y1="80" y2="96"/>
<line x1="568" x2="556" y1="88" y2="88"/>
<line x1="568" x2="580" y1="88" y2="88"/>
<line x1="580" x2="580" y1="80" y2="96"/>
<line x1="580" x2="580" y1="80" y2="96"/>
<text x="65" y="108">
5
</text>
<text x="81" y="108">
1
</text>
<text x="89" y="108">
0
</text>
<text x="105" y="108">
1
</text>
<text x="113" y="108">
5
</text>
<text x="129" y="108">
2
</text>
<text x="137" y="108">
0
</text>
<text x="153" y="108">
2
</text>
<text x="161" y="108">
5
</text>
<text x="177" y="108">
3
</text>
<text x="185" y="108">
0
</text>
<text x="201" y="108">
3
</text>
<text x="209" y="108">
5
</text>
<text x="225" y="108">
4
</text>
<text x="233" y="108">
0
</text>
<text x="249" y="108">
4
</text>
<text x="257" y="108">
5
</text>
<text x="273" y="108">
5
</text>
<text x="281" y="108">
0
</text>
<text x="361" y="108">
5
</text>
<text x="377" y="108">
1
</text>
<text x="385" y="108">
0
</text>
<text x="401" y="108">
1
</text>
<text x="409" y="108">
5
</text>
<text x="425" y="108">
2
</text>
<text x="433" y="108">
0
</text>
<text x="449" y="108">
2
</text>
<text x="457" y="108">
5
</text>
<text x="473" y="108">
3
</text>
<text x="481" y="108">
0
</text>
<text x="497" y="108">
3
</text>
<text x="505" y="108">
5
</text>
<text x="521" y="108">
4
</text>
<text x="529" y="108">
0
</text>
<text x="545" y="108">
4
</text>
<text x="553" y="108">
5
</text>
<text x="569" y="108">
5
</text>
<text x="577" y="108">
0
</text>
</svg>